<?xml version="1.0" encoding="UTF-8" standalone="no"?>
<!-- Created with Inkscape (http://www.inkscape.org/) -->

<svg
   width="660"
   height="200"
   viewBox="0 0 660 200"
   version="1.1"
   id="svg13"
   xmlns:xlink="http://www.w3.org/1999/xlink"
   xmlns="http://www.w3.org/2000/svg"
   xmlns:svg="http://www.w3.org/2000/svg">
  <defs
     id="defs1866">
    <linearGradient
       xlink:href="#linearGradient1814"
       id="linearGradient1816"
       x1="500"
       y1="-50.916679"
       x2="500"
       y2="139.08331"
       gradientUnits="userSpaceOnUse"
       gradientTransform="matrix(0.98507462,0,0,0.50716236,-152.68657,129.46218)" />
    <linearGradient
       id="linearGradient1814">
      <stop
         style="stop-color:#e0ceb0;stop-opacity:1"
         offset="0"
         id="stop1810" />
      <stop
         style="stop-color:#e0ceb0;stop-opacity:0"
         offset="1"
         id="stop1812" />
    </linearGradient>
  </defs>
  <path
     id="path1604"
     style="fill:#ffff99;fill-opacity:1;stroke:none;stroke-width:13.3454;stroke-linecap:round;stroke-linejoin:round;stroke-miterlimit:4;stroke-dasharray:none;stroke-dashoffset:0;stroke-opacity:1"
     d="M 450.56966,2e-7 405.84497,64.74291 c 6.40519,2.90846 12.42208,6.25361 17.95068,10.007697 3.25112,2.207589 6.29353,4.53087 9.11963,6.954248 -2.40944,-1.931979 -4.98737,-3.846708 -7.7363,-5.76117 -22.03731,-15.347702 -51.93912,-24.803784 -85.32824,-24.803784 -33.38914,0 -63.29093,9.456082 -85.32824,24.803784 -10.08703,7.704597 -5.70638,3.642367 1.38333,-1.193078 5.30089,-3.599451 11.05128,-6.822763 17.16185,-9.645918 L 229.13182,1.5050089 c -19.87359,9.5888421 -32.11647,27.3100241 -32.1169,46.4881981 -2.5e-4,19.178745 12.24272,36.900677 32.1169,46.4898 1.11688,0.515332 2.25188,1.002746 3.4035,1.46159 -7.60032,9.997613 -11.40148,21.313143 -11.40146,35.806783 0,5.99329 0.72089,11.62896 2.25297,16.82367 H 456.2627 c 1.56659,-5.16776 2.30493,-10.79381 2.30492,-16.82367 0,-15.05483 -4.10162,-26.68147 -12.30189,-36.962879 1.46123,-0.558306 2.89689,-1.162235 4.30393,-1.810511 19.87418,-9.589124 32.11715,-27.311055 32.1169,-46.4898 C 482.68612,27.310019 470.44324,9.5888407 450.56966,2e-7 Z" />
  <path
     style="fill:#e6d2b2;fill-opacity:1;stroke:none;stroke-width:0.77195;stroke-linecap:round;stroke-linejoin:round;stroke-miterlimit:4;stroke-dasharray:none;stroke-dashoffset:0;stroke-opacity:1"
     d="m 113.28358,79.225977 v 33.166953 h -9.85075 V 94.301869 H 83.731343 V 124.45364 H 80.776119 V 91.286691 H 64.02985 V 106.36258 H 44.328358 v 12.06071 H 29.552239 v -3.01518 h -14.77612 v 24.12142 3.01518 6.03034 H 655.07462 c 0,-12.0607 0,-15.07588 0,-27.13658 H 634.38805 V 97.317048 H 613.70148 V 124.45364 H 586.1194 v -18.09106 h -24.62687 v 12.06071 h -19.70149 v -18.09106 h -19.7015 V 79.225977 h -14.77611 v 12.060714 h -14.77612 v 36.182119 h -9.85075 V 94.301869 h -24.62687 v 30.151771 h -9.85074 v -9.04553 H 428.50746 V 88.271522 h -9.85075 v 42.212468 h -4.92537 V 94.301869 H 398.95522 V 124.45364 H 364.47761 V 85.256344 h -29.55224 v 15.075886 h -19.7015 v -9.045539 h -4.92537 c 4.92537,-6.030347 -9.85074,-6.030347 -4.92537,0 h -4.92537 v 30.151779 h -24.62687 v -21.10624 h -11.96135 c -3.37915,-9.315729 -9.62047,-15.060565 -16.37878,-15.075886 -10.46223,2.57e-4 -18.94345,13.499588 -18.94345,30.151766 0.007,3.07009 0.30884,6.12043 0.89464,9.04553 H 206.86567 V 94.301869 h -19.7015 V 127.46881 H 147.76119 V 79.225977 h -14.77612 v 9.045545 h -4.92537 v -9.045545 z m 14.77612,12.060714 h 4.92537 V 121.43847 H 128.0597 Z M 29.552239,127.46881 h 14.776119 v 6.03036 H 29.552239 Z"
     id="rect1730" />
  <path
     style="fill:url(#linearGradient1816);fill-opacity:1;stroke:none;stroke-width:0.707931;stroke-linecap:round;stroke-linejoin:round;stroke-miterlimit:4;stroke-dasharray:none;stroke-dashoffset:0;stroke-opacity:1"
     d="m 137.91044,200 v -17.75068 h -4.92537 v -7.60743 h -4.92537 v 7.60743 h -14.77612 v -22.82231 h -9.85075 v 10.14325 H 83.731343 v -19.01859 l -2.955224,0.38038 v 21.17402 H 64.02985 V 159.42701 H 49.253731 v 5.07162 h -7.386139 c -8.8e-5,0.007 -3.84e-4,0.0139 -0.002,0.0208 l -1.970149,12.67906 c -0.02167,0.13292 -0.239265,0.23458 -0.49831,0.23277 -0.254622,-0.002 -0.465497,-0.10213 -0.486765,-0.23277 l -1.970149,-12.67906 c -9.85e-4,-0.007 -0.002,-0.0139 -0.002,-0.0208 h -7.38604 v -12.67906 h -14.77612 v -5.91688 H 0 c 0,-10.14326 0,-13.52433 0,-16.90542 9.8507462,0 9.8507462,-3.38108 14.776119,-10.14325 h 6.895523 32.507462 4.925373 9.850747 147.761186 443.28358 v 33.13461 h -21.67164 v -5.24067 h -2.95522 v 7.60743 h -0.98508 v 12.67905 h -20.68657 v -12.67905 h -2.95522 v 2.53581 h -4.92537 v -2.53581 h -4.92538 v -10.14325 h -9.85074 v 1.01432 2.53582 4.05729 h -4.92537 v 7.60744 h -24.62687 v 10.14325 h -2.57428 c -1.21741,3.06721 -4.08924,5.06885 -7.27647,5.07163 -3.18862,-9.9e-4 -6.06236,-2.00307 -7.28031,-5.07163 h -2.57043 v -5.07163 h -19.7015 v 17.75069 h -14.77611 v -10.14325 h -14.77612 v -6.33953 l -4.92538,-1.26791 h -4.92537 v 5.07163 h -24.62687 v -8.62176 c 0,2.62961 -3.88832,4.79212 -8.86567,5.04685 v 7.63221 h -1.97015 v -7.63221 c -4.97734,-0.25473 -8.86567,-2.41724 -8.86567,-5.04685 h -4.92537 v -6.59311 h -4.92537 v 5.07162 15.21488 h -9.85075 v -10.14326 h -4.92537 v 5.07163 h -14.77612 v -10.14325 -15.21487 h -9.85075 v 43.1088 h -19.70149 v -25.35811 h -4.92537 v 15.21487 h -19.7015 v 5.07162 h -4.92537 v 2.02864 h -19.70149 v -2.02864 h -4.92538 v -10.14325 h -4.92537 c 4.92537,5.07163 -9.85074,5.07163 -4.92537,0 h -4.92537 v -15.72203 l -19.7015,-2.02865 v -7.60743 h -4.92537 v 17.75067 h -11.96135 c -3.37915,7.83468 -9.62047,12.66617 -16.37878,12.67907 -4.84649,-10e-5 -9.26537,-2.43994 -12.6155,-6.4475 -2.10344,2.33245 -6.1323,3.91169 -10.76079,3.91169 -6.80052,0 -12.31343,-3.40597 -12.31343,-7.60745 V 156.8912 h -4.92537 v 12.67906 H 190.1194 v 17.75068 l -24.62687,-5.07162 v -40.57299 h -2.95522 V 200 Z m -9.85074,-27.89393 h 4.92537 v -12.67906 h -4.92537 z"
     id="path1805" />
  <path
     style="fill:#d3b17c;fill-opacity:1;stroke:none;stroke-width:1.52569;stroke-linecap:round;stroke-linejoin:round;stroke-miterlimit:4;stroke-dasharray:none;stroke-dashoffset:0;stroke-opacity:1"
     d="m 137.91044,59.963294 v 64.981956 h -4.92537 V 107.2229 h -29.55224 v 25.99278 h -9.850741 v -14.17787 l -19.701492,-2.95374 v -5.90744 H 54.179104 v 26.58352 h -4.925373 v -35.4447 h -7.386139 c -8.8e-5,-0.008 -4.33e-4,-0.0162 -0.002,-0.0242 L 39.895443,86.522631 c -0.02167,-0.154825 -0.239265,-0.273244 -0.49831,-0.271142 -0.254622,0.002 -0.465497,0.118975 -0.486765,0.271142 l -1.970149,14.768619 c -9.85e-4,0.008 -0.002,0.0162 -0.002,0.0242 h -7.38604 v 33.67247 l -7.880597,1.77223 V 121.99153 H 3.9402985 v 14.76862 H 0 v 11.8149 h 659.99999 v -32.49098 h -21.67164 v 20.67608 h -2.95522 v -23.6298 h -9.85075 v -2.95372 h -4.92537 l -4.92538,2.95372 h -4.92537 v -2.95372 h -4.92537 v 2.95372 h -4.92538 v 23.6298 h -9.85074 v -12.99639 -2.95372 -4.72597 h -4.92537 v 4.72597 h -9.85075 v 14.17788 h -4.92537 v -4.13521 l -3.9403,-8.86118 h -5.91045 V 95.407997 h -2.57428 c -1.21741,-3.572705 -4.08924,-5.904213 -7.27647,-5.907446 -3.18862,9.92e-4 -6.06236,2.333174 -7.28031,5.907446 h -2.57043 v 29.537253 h -4.92538 v 11.8149 h -4.92537 V 107.2229 H 512.2388 v 11.81491 l -9.85075,-2.95374 v -14.76862 l -4.92537,-2.953721 -9.85075,2.953721 h -4.92537 v 17.72236 h -9.85075 v 11.8149 h -9.85074 v -25.40205 h -4.92538 c 0,-3.06298 -3.88832,-5.581887 -8.86567,-5.878595 v -8.890026 h -1.97015 v 8.890026 c -4.97734,0.296708 -8.86567,2.815615 -8.86567,5.878595 h -4.92537 v 7.67969 h -4.92537 v -5.90745 h -4.92538 v -2.95373 h -4.92537 v -2.95372 h -9.85075 v 2.95372 h -4.92537 v 2.95373 h -4.92537 v 18.90384 h -9.85075 V 74.731919 h -19.70149 v 29.537251 h -19.70149 v 20.67608 h -4.92538 V 80.639374 h -4.92537 V 78.2764 h -19.70149 v 2.362974 h -4.92538 v 46.668866 h -9.85074 v -17.13161 l -24.62687,2.95372 v 22.44831 h -4.92537 v -10.63341 l -14.77612,-5.90744 -9.85075,5.90744 v 11.8149 h -9.85074 V 110.17663 H 236.4179 V 98.361729 c 0,-4.893893 -5.51291,-8.861178 -12.31343,-8.861178 -6.80052,0 -12.31343,3.967285 -12.31343,8.861178 v 11.814901 h -19.70149 v 20.67608 H 190.1194 V 74.731919 l -24.62687,5.907455 v 53.167056 h -2.95522 V 59.963294 Z m 290.59702,59.074516 h 4.92537 v 4.72595 h -4.92537 z"
     id="rect1506" />
</svg>
