<?xml version="1.0" encoding="UTF-8" standalone="no"?>
<!-- Created with Inkscape (http://www.inkscape.org/) -->

<svg
   width="660"
   height="200"
   viewBox="0 0 660 200"
   version="1.1"
   xmlns:xlink="http://www.w3.org/1999/xlink"
   xmlns="http://www.w3.org/2000/svg"
   xmlns:svg="http://www.w3.org/2000/svg">
  <defs
     id="defs1866">
    <linearGradient
       xlink:href="#linearGradient1814"
       id="linearGradient1816"
       x1="500"
       y1="-50.916679"
       x2="500"
       y2="139.08331"
       gradientUnits="userSpaceOnUse"
       gradientTransform="matrix(0.98507462,0,0,0.5114047,-152.68657,160.54511)" />
    <linearGradient
       id="linearGradient1814">
      <stop
         style="stop-color:#e0ceb0;stop-opacity:1"
         offset="0"
         id="stop1810" />
      <stop
         style="stop-color:#e0ceb0;stop-opacity:0"
         offset="1"
         id="stop1812" />
    </linearGradient>
  </defs>
  <g
     id="layer1">
    <g
       id="g2649"
       transform="matrix(1,0,0,0.99170454,3.9e-6,-29.751136)">
      <path
         id="path1604"
         style="fill:#ffff99;fill-opacity:1;stroke:none;stroke-width:13.4222;stroke-linecap:round;stroke-linejoin:round;stroke-miterlimit:4;stroke-dasharray:none;stroke-dashoffset:0;stroke-opacity:1"
         d="m 450.56966,30 -44.72469,65.490234 c 6.40519,2.942033 12.42208,6.325796 17.95068,10.123216 3.25112,2.23307 6.29353,4.58317 9.11963,7.03452 -2.40944,-1.95428 -4.98737,-3.89111 -7.7363,-5.82767 -22.03731,-15.52486 -51.93912,-25.090093 -85.32824,-25.090093 -33.38914,0 -63.29093,9.565233 -85.32824,25.090093 -10.08703,7.79353 -5.70638,3.68441 1.38333,-1.20685 5.30089,-3.641 11.05128,-6.901518 17.16185,-9.757261 L 229.13182,31.522381 c -19.87359,9.699526 -32.11647,27.625263 -32.1169,47.024809 -2.5e-4,19.400125 12.24272,37.32662 32.1169,47.02643 1.11688,0.52128 2.25188,1.01432 3.4035,1.47846 -7.60032,10.11301 -11.40148,21.55916 -11.40146,36.2201 0,6.06247 0.72089,11.76319 2.25297,17.01786 H 456.2627 c 1.56659,-5.22741 2.30493,-10.9184 2.30492,-17.01786 0,-15.2286 -4.10162,-26.98946 -12.30189,-37.38954 1.46123,-0.56475 2.89689,-1.17565 4.30393,-1.83141 19.87418,-9.69981 32.11715,-27.626305 32.1169,-47.026429 C 482.68612,57.625257 470.44324,39.699524 450.56966,30 Z" />
      <path
         style="fill:#e6d2b2;fill-opacity:1;stroke:none;stroke-width:0.775172;stroke-linecap:round;stroke-linejoin:round;stroke-miterlimit:4;stroke-dasharray:none;stroke-dashoffset:0;stroke-opacity:1"
         d="m 113.28358,109.88869 v 33.44439 h -9.85075 V 125.09069 H 83.731339 v 30.40399 H 80.776115 V 122.05029 H 64.029846 v 15.202 H 44.328354 v 12.16159 H 29.552235 v -3.0404 h -14.77612 v 24.32319 3.0404 6.08079 H 655.07462 c 0,-12.16159 0,-15.20199 0,-27.36358 h -20.68657 v -24.32319 h -20.68657 v 27.36359 H 586.1194 v -18.24239 h -24.62687 v 12.16159 h -19.70149 v -18.24239 h -19.7015 v -21.2828 h -14.77611 v 12.1616 h -14.77612 v 36.48478 h -9.85075 v -33.44438 h -24.62687 v 30.40399 h -9.85074 v -9.1212 H 428.50746 V 119.0099 h -9.85075 v 42.56557 h -4.92537 v -36.48478 h -14.77612 v 30.40399 H 364.47761 V 115.9695 h -29.55224 v 15.20199 h -19.7015 v -9.1212 h -4.92537 c 4.92537,-6.08079 -9.85074,-6.08079 -4.92537,0 h -4.92537 v 30.40399 h -24.62687 v -21.28279 h -11.96135 c -3.37915,-9.39365 -9.62047,-15.18654 -16.37878,-15.20199 -10.46223,2.6e-4 -18.94345,13.61251 -18.94345,30.40398 0.007,3.09577 0.30884,6.17163 0.89464,9.1212 h -22.56628 v -30.40399 h -19.7015 v 33.44438 h -39.40298 v -48.64638 h -14.77612 v 9.12121 h -4.92537 v -9.12121 z m 14.77612,12.1616 h 4.92537 v 30.40399 h -4.92537 z m -98.507465,36.48478 h 14.776119 v 6.0808 H 29.552235 Z"
         id="rect1730" />
      <path
         style="fill:url(#linearGradient1816);fill-opacity:1;stroke:none;stroke-width:0.710886;stroke-linecap:round;stroke-linejoin:round;stroke-miterlimit:4;stroke-dasharray:none;stroke-dashoffset:0;stroke-opacity:1"
         d="m 137.91044,231.67297 v -17.89916 h -4.92537 v -7.67107 h -4.92537 v 7.67107 h -14.77612 v -23.01322 h -9.85075 v 10.2281 H 83.731339 v -19.17768 l -2.955224,0.38356 v 21.35114 H 64.029846 V 190.76059 H 49.253727 v 5.11405 h -7.386139 c -8.8e-5,0.007 -3.84e-4,0.014 -0.002,0.021 l -1.970149,12.78512 c -0.02167,0.13403 -0.239265,0.23654 -0.49831,0.23472 -0.254622,-0.002 -0.465497,-0.10299 -0.486765,-0.23472 l -1.970149,-12.78512 c -9.85e-4,-0.007 -0.002,-0.014 -0.002,-0.021 h -7.38604 v -12.78512 h -14.77612 v -5.96638 H -3.9e-6 c 0,-10.2281 0,-13.63746 0,-17.04683 9.8507462,0 9.8507462,-3.40936 14.7761189,-10.22809 h 6.895523 32.507462 4.925373 9.850747 147.76119 443.28358 v 33.41177 h -21.67164 v -5.28451 h -2.95522 v 7.67107 h -0.98508 v 12.78511 h -20.68657 v -12.78511 h -2.95522 v 2.55702 h -4.92537 v -2.55702 h -4.92538 v -10.2281 h -9.85074 v 1.02281 2.55703 4.09123 h -4.92537 v 7.67107 h -24.62687 v 10.2281 h -2.57428 c -1.21741,3.09287 -4.08924,5.11125 -7.27647,5.11405 -3.18862,-0.001 -6.06236,-2.01982 -7.28031,-5.11405 h -2.57043 v -5.11405 h -19.7015 v 17.89917 h -14.77611 v -10.2281 h -14.77612 v -6.39256 l -4.92538,-1.27851 h -4.92537 v 5.11405 h -24.62687 v -8.69388 c 0,2.65161 -3.88832,4.83221 -8.86567,5.08907 v 7.69605 h -1.97015 v -7.69605 c -4.97734,-0.25686 -8.86567,-2.43746 -8.86567,-5.08907 h -4.92537 v -6.64826 h -4.92537 v 5.11404 15.34215 h -9.85075 v -10.2281 h -4.92537 v 5.11405 h -14.77612 v -10.2281 -15.34214 h -9.85075 v 43.4694 h -19.70149 v -25.57023 h -4.92537 v 15.34214 h -19.7015 v 5.11405 h -4.92537 v 2.04561 h -19.70149 v -2.04561 h -4.92538 v -10.2281 h -4.92537 c 4.92537,5.11405 -9.85074,5.11405 -4.92537,0 h -4.92537 v -15.85354 l -19.7015,-2.04562 v -7.67107 h -4.92537 v 17.89916 h -11.96135 c -3.37915,7.90021 -9.62047,12.77212 -16.37878,12.78512 -4.84649,-1e-4 -9.26537,-2.46035 -12.6155,-6.50143 -2.10344,2.35196 -6.1323,3.94441 -10.76079,3.94441 -6.80052,0 -12.31343,-3.43446 -12.31343,-7.67108 v -10.22809 h -4.92537 v 12.78512 H 190.1194 v 17.89916 l -24.62687,-5.11404 v -40.91238 h -2.95522 v 58.81154 z m -9.85074,-28.12726 h 4.92537 v -12.78512 h -4.92537 z"
         id="path1805" />
      <path
         style="fill:#d3b17c;fill-opacity:1;stroke:none;stroke-width:1.53206;stroke-linecap:round;stroke-linejoin:round;stroke-miterlimit:4;stroke-dasharray:none;stroke-dashoffset:0;stroke-opacity:1"
         d="M 137.91044,90.464878 V 155.9904 h -4.92537 v -17.8706 h -29.55224 v 26.21021 H 93.582085 V 150.03354 L 73.880593,147.0551 v -5.95686 H 54.1791 v 26.80589 h -4.925373 v -35.74119 h -7.386139 c -8.8e-5,-0.008 -4.33e-4,-0.0163 -0.002,-0.0244 l -1.970149,-14.89216 c -0.02167,-0.15612 -0.239265,-0.27553 -0.49831,-0.27341 -0.254622,0.002 -0.465497,0.11997 -0.486765,0.27341 l -1.970149,14.89216 c -9.85e-4,0.008 -0.002,0.0163 -0.002,0.0244 h -7.38604 v 33.95413 l -7.880597,1.78706 V 153.01197 H 3.9402946 v 14.89216 H -3.9e-6 v 11.91373 H 659.99999 V 147.0551 h -21.67164 v 20.84903 h -2.95522 v -23.82746 h -9.85075 v -2.97843 h -4.92537 l -4.92538,2.97843 h -4.92537 v -2.97843 h -4.92537 v 2.97843 h -4.92538 v 23.82746 h -9.85074 v -13.1051 -2.97843 -4.7655 h -4.92537 v 4.7655 h -9.85075 v 14.29647 h -4.92537 v -4.1698 l -3.9403,-8.9353 h -5.91045 v -26.8059 h -2.57428 c -1.21741,-3.60259 -4.08924,-5.9536 -7.27647,-5.95686 -3.18862,10e-4 -6.06236,2.35269 -7.28031,5.95686 h -2.57043 v 29.78433 h -4.92538 v 11.91373 h -4.92537 V 138.1198 H 512.2388 v 11.91374 l -9.85075,-2.97844 v -14.89216 l -4.92537,-2.97843 -9.85075,2.97843 h -4.92537 v 17.8706 h -9.85075 v 11.91373 h -9.85074 v -25.61453 h -4.92538 c 0,-3.0886 -3.88832,-5.62858 -8.86567,-5.92777 v -8.96439 h -1.97015 v 8.96439 c -4.97734,0.29919 -8.86567,2.83917 -8.86567,5.92777 h -4.92537 v 7.74393 h -4.92537 v -5.95687 h -4.92538 v -2.97843 h -4.92537 v -2.97843 h -9.85075 v 2.97843 h -4.92537 v 2.97843 h -4.92537 v 19.06197 h -9.85075 v -51.82473 h -19.70149 v 29.78433 h -19.70149 v 20.84903 h -4.92538 v -44.67649 h -4.92537 v -2.38274 h -19.70149 v 2.38274 h -4.92538 v 47.05924 h -9.85074 v -17.27491 l -24.62687,2.97843 v 22.63609 h -4.92537 V 155.9904 l -14.77612,-5.95686 -9.85075,5.95686 v 11.91373 h -9.85074 v -26.80589 h -4.92538 v -11.91373 c 0,-4.93483 -5.51291,-8.9353 -12.31343,-8.9353 -6.80052,0 -12.31343,4.00047 -12.31343,8.9353 v 11.91373 h -19.70149 v 20.84903 h -1.97015 v -56.59023 l -24.62687,5.95687 v 53.61179 h -2.95522 V 90.464878 Z m 290.59702,59.568662 h 4.92537 v 4.76549 h -4.92537 z"
         id="rect1506" />
    </g>
  </g>
</svg>
